<?xml version="1.0" standalone="no"?>
<!DOCTYPE svg PUBLIC "-//W3C//DTD SVG 20010904//EN"
 "http://www.w3.org/TR/2001/REC-SVG-20010904/DTD/svg10.dtd">
<svg version="1.0" xmlns="http://www.w3.org/2000/svg"
 width="1644.000000pt" height="454.000000pt" viewBox="0 0 1644.000000 454.000000"
 preserveAspectRatio="xMidYMid meet">
<metadata>
Created by potrace 1.16, written by Peter Selinger 2001-2019
</metadata>
<g transform="translate(0.000000,454.000000) scale(0.100000,-0.100000)"
fill="#000000" stroke="none">
<path d="M1845 4241 c-145 -53 -257 -154 -320 -286 -50 -107 -91 -155 -167
-195 -34 -18 -77 -44 -94 -57 -40 -30 -54 -29 -166 8 -188 63 -364 34 -518
-87 -121 -94 -188 -224 -210 -402 -10 -75 -20 -104 -73 -211 l-62 -124 -3
-128 c-3 -95 0 -141 12 -182 13 -43 13 -61 5 -87 -17 -48 -6 -147 25 -212 31
-65 107 -141 172 -170 86 -37 209 -20 309 44 53 34 232 87 296 88 22 0 61 -13
98 -32 60 -31 62 -33 81 -94 101 -328 341 -680 618 -907 l74 -60 -7 -71 c-22
-236 -161 -647 -232 -685 -17 -9 -65 -17 -119 -19 -83 -4 -107 0 -255 38 -136
36 -181 43 -264 44 -106 1 -184 -15 -209 -43 -13 -15 -46 -148 -46 -189 0 -10
8 -26 18 -35 17 -16 119 -17 1260 -17 l1241 0 20 26 c16 21 21 41 21 89 0 58
-2 65 -31 89 l-31 26 -376 0 -377 0 -81 95 c-44 52 -93 120 -109 152 -27 53
-30 67 -29 158 0 65 6 119 17 154 9 29 28 148 42 265 39 329 43 358 47 360 2
1 50 12 108 25 176 38 342 122 465 233 40 37 62 48 110 58 33 6 79 21 102 33
l43 20 52 -26 c123 -62 244 -70 372 -27 140 47 256 186 256 306 0 18 7 59 15
91 17 66 20 253 5 334 -6 30 -29 92 -52 139 -36 74 -57 99 -159 200 -150 146
-158 163 -159 323 0 190 -38 316 -134 445 -84 113 -211 190 -386 232 -52 13
-133 41 -179 62 -156 71 -194 76 -391 52 -41 -5 -51 -2 -95 30 -172 124 -213
139 -375 143 -101 2 -135 -1 -175 -16z m-192 -2025 c18 -7 51 -30 74 -50 35
-31 46 -49 63 -109 12 -40 42 -139 67 -222 34 -110 50 -180 58 -262 l11 -113
-35 33 c-60 56 -80 80 -130 152 -103 150 -149 286 -158 468 -6 128 -7 127 50
103z m1087 -238 c0 -16 -228 -168 -252 -168 -4 0 -2 11 4 25 6 14 15 25 20 25
4 0 8 9 8 19 0 19 23 72 68 159 l22 42 65 -47 c35 -27 64 -51 65 -55z"/>
<path d="M13610 4245 c0 -11 -11 -15 -40 -15 -22 0 -40 -4 -40 -9 0 -5 -22
-14 -50 -21 -27 -6 -54 -18 -61 -26 -6 -8 -18 -14 -25 -14 -8 0 -14 -4 -14
-10 0 -5 -7 -10 -15 -10 -9 0 -27 -11 -41 -25 -14 -14 -30 -23 -35 -19 -5 3
-8 1 -7 -3 2 -5 -17 -29 -42 -53 -25 -24 -62 -66 -82 -93 -32 -43 -38 -47 -45
-31 -19 52 -82 59 -131 15 -43 -39 -43 -78 -1 -120 17 -18 41 -31 55 -31 24 0
32 -14 14 -25 -5 -3 -10 -22 -10 -41 0 -19 -3 -34 -7 -34 -15 1 -43 27 -36 33
3 4 -15 7 -41 7 -29 0 -45 -4 -41 -10 3 -6 -1 -13 -10 -16 -18 -7 -45 -55 -45
-80 0 -30 59 -74 99 -74 l36 0 0 -55 c0 -37 -4 -55 -12 -55 -7 0 -13 5 -13 10
0 14 -38 12 -56 -2 -42 -35 -54 -54 -54 -84 0 -46 41 -84 91 -84 22 0 39 5 39
10 0 6 7 10 15 10 10 0 15 -10 15 -29 0 -17 5 -33 10 -36 6 -3 10 -13 10 -20
0 -11 -6 -12 -26 -5 -22 9 -29 6 -55 -22 -23 -26 -29 -41 -29 -79 0 -43 2 -48
34 -63 19 -9 41 -16 50 -16 25 0 66 22 66 37 0 7 7 13 16 13 11 0 14 -6 9 -21
-4 -12 -3 -19 2 -16 5 3 20 -3 33 -14 23 -17 23 -19 5 -19 -39 -1 -58 -26 -58
-76 0 -27 5 -49 13 -54 7 -4 10 -13 6 -19 -4 -6 -1 -9 7 -5 8 3 21 -2 30 -10
16 -16 72 -23 63 -8 -2 4 9 17 25 27 19 13 28 26 25 38 -6 25 5 21 42 -17 33
-34 33 -34 11 -41 -37 -12 -49 -31 -49 -76 0 -53 37 -89 90 -89 45 1 68 19 76
59 l7 32 28 -27 c16 -15 26 -31 23 -36 -3 -4 -1 -8 5 -8 5 0 13 -9 16 -20 6
-19 -15 -59 -57 -104 -17 -19 -18 -19 -24 11 -4 20 -14 33 -28 37 -35 9 -80 7
-109 -6 -24 -12 -27 -19 -27 -61 0 -27 6 -54 13 -61 22 -23 57 -37 70 -29 6 4
-1 -9 -18 -29 -16 -20 -33 -37 -37 -37 -3 -1 -12 13 -20 29 -7 18 -21 31 -33
31 -52 4 -90 -4 -103 -22 -7 -11 -17 -17 -21 -15 -4 3 -7 -12 -7 -32 1 -50 29
-92 61 -92 30 0 31 -5 5 -32 -30 -32 -28 -136 3 -183 12 -19 30 -38 41 -41 16
-5 14 -8 -13 -21 -17 -9 -31 -22 -31 -29 0 -8 -4 -14 -10 -14 -5 0 -10 -14
-10 -31 0 -40 56 -99 94 -99 31 0 64 25 80 63 l12 27 23 -24 24 -25 -29 -7
c-38 -9 -44 -20 -44 -76 0 -61 26 -88 84 -88 36 0 44 5 64 35 12 19 26 35 32
35 15 0 60 -65 60 -88 0 -12 -11 -33 -25 -48 -14 -15 -25 -31 -25 -35 0 -5 -5
-9 -11 -9 -6 0 -9 7 -5 15 3 8 1 15 -5 15 -6 0 -7 5 -3 12 4 6 3 8 -4 4 -6 -3
-17 1 -25 9 -19 18 -62 20 -83 3 -41 -34 -54 -54 -54 -82 0 -34 43 -86 72 -86
10 0 18 -4 18 -10 0 -5 -4 -10 -8 -10 -5 0 -15 -11 -22 -25 -16 -29 -28 -32
-37 -8 -23 60 -87 70 -133 21 -29 -33 -43 -98 -20 -98 6 0 10 -7 10 -15 0 -8
7 -15 15 -15 8 0 15 -4 15 -10 0 -5 9 -10 20 -10 21 0 26 -10 11 -26 -9 -9
-15 -65 -12 -115 1 -31 69 -109 94 -109 9 0 17 -4 17 -10 0 -5 -6 -10 -13 -10
-24 0 -57 -57 -55 -94 2 -19 6 -32 11 -29 4 2 10 -3 13 -11 3 -9 12 -16 19
-16 7 0 18 -6 25 -14 12 -16 26 -13 78 19 24 14 32 26 32 48 l0 29 29 -24 29
-23 -29 -13 c-21 -9 -29 -19 -30 -40 -2 -55 3 -77 21 -93 11 -9 16 -19 13 -23
-4 -3 12 -6 34 -6 50 0 103 41 103 79 l0 24 26 -27 c15 -14 30 -26 34 -26 3 0
12 -11 19 -24 11 -21 10 -29 -15 -67 -16 -24 -34 -55 -41 -69 -8 -18 -12 -20
-12 -8 -1 9 -10 23 -21 31 -11 8 -17 17 -13 20 3 4 -13 7 -36 7 -36 0 -48 -6
-77 -37 -25 -26 -34 -44 -32 -62 4 -36 57 -83 86 -78 27 5 29 -7 4 -25 -10 -7
-26 -29 -35 -50 -40 -84 -4 -191 76 -226 36 -16 121 -15 149 1 28 16 97 89 98
103 0 6 11 21 25 34 14 13 25 29 25 35 0 6 13 25 30 41 16 16 30 34 30 40 0 6
14 26 30 44 17 18 30 38 30 44 0 6 12 22 25 35 14 13 25 29 25 35 0 14 34 49
41 41 3 -2 6 8 7 23 3 37 22 54 22 20 0 -15 5 -30 10 -33 6 -3 10 -24 10 -46
0 -21 5 -39 10 -39 6 0 10 -18 10 -40 0 -26 4 -39 12 -37 7 1 14 -9 16 -23 2
-14 8 -29 13 -35 5 -5 9 -24 9 -42 0 -18 5 -33 10 -33 6 0 10 -13 10 -30 0
-16 4 -30 9 -30 7 0 29 -61 34 -100 2 -8 7 -22 12 -30 21 -32 35 -63 35 -76 0
-8 9 -23 20 -34 18 -18 33 -20 184 -20 l164 0 18 50 c10 27 21 50 26 50 4 0
10 16 14 35 3 19 10 35 15 35 5 0 9 11 9 24 0 14 5 28 10 31 6 3 10 19 10 35
0 31 15 48 24 28 3 -7 3 -1 0 14 -3 15 1 36 10 50 8 12 18 47 22 76 4 29 13
59 20 67 8 7 14 27 14 44 0 16 5 33 10 36 6 3 10 27 10 51 0 32 4 44 13 41 6
-2 11 -9 10 -15 -1 -5 7 -18 17 -27 11 -10 20 -23 20 -29 0 -5 11 -22 26 -37
14 -14 26 -36 27 -47 0 -12 3 -19 6 -17 7 7 41 -26 41 -40 0 -7 7 -19 16 -26
9 -8 27 -30 40 -49 13 -19 35 -52 49 -72 14 -21 22 -38 19 -38 -4 0 5 -9 20
-21 14 -11 26 -26 26 -33 0 -13 31 -42 68 -64 28 -16 126 -16 154 1 12 6 30
21 39 32 9 11 26 31 38 44 32 37 30 124 -4 155 -14 13 -25 28 -25 35 0 6 -4
11 -10 11 -5 0 -10 5 -10 10 0 6 8 10 18 10 9 0 29 11 45 24 60 51 16 156 -65
156 -25 0 -38 -7 -53 -30 -25 -37 -28 -37 -46 -3 -7 16 -24 41 -36 56 -13 16
-23 35 -23 43 0 13 6 20 63 71 25 23 40 22 30 -3 -8 -22 51 -74 86 -74 43 0
91 49 91 92 -1 38 -20 68 -43 68 -28 0 -27 16 4 34 l29 17 6 -30 c4 -21 16
-36 37 -46 45 -22 61 -19 107 24 l42 39 -17 33 c-20 38 -34 53 -55 61 -12 5
-11 7 5 14 25 10 78 61 93 91 18 33 15 123 -5 145 -14 16 -14 18 -1 18 9 0 29
7 44 15 16 8 26 15 21 15 -4 0 -1 11 8 23 13 21 14 28 1 58 -18 42 -49 69 -80
69 -33 0 -85 -31 -88 -53 -2 -14 -9 -10 -31 18 l-28 35 24 0 c33 0 67 40 67
78 0 43 -20 82 -42 82 -10 0 -18 5 -18 10 0 17 -67 12 -74 -6 -3 -8 -10 -13
-15 -10 -5 3 -12 -5 -15 -19 -6 -25 -26 -35 -26 -14 0 6 -13 27 -30 46 -16 18
-30 38 -30 44 0 5 21 31 46 57 39 39 46 43 41 23 -14 -60 101 -99 144 -49 35
41 41 66 23 103 -11 23 -25 36 -45 40 l-30 7 26 24 c32 30 35 30 35 1 0 -28
49 -67 82 -67 13 0 32 7 42 15 10 8 22 12 26 10 4 -2 8 23 9 57 2 65 -15 98
-51 98 -15 0 -11 6 16 31 19 16 38 40 42 51 4 14 8 17 14 8 4 -6 5 12 3 42 -5
55 -22 108 -35 108 -5 0 -8 7 -8 15 0 8 9 15 20 15 11 0 20 5 20 10 0 6 6 10
13 10 20 0 21 77 2 106 -8 13 -12 24 -8 25 5 1 -6 4 -22 8 -17 4 -47 6 -67 3
-30 -3 -39 -9 -47 -34 l-11 -30 -30 28 c-36 34 -37 38 -9 31 12 -3 19 -3 16 0
-3 3 8 18 24 34 59 57 21 132 -73 142 -29 3 -45 1 -42 -5 3 -5 -3 -12 -14 -15
-13 -3 -22 -15 -25 -32 l-3 -26 -12 27 c-6 14 -17 30 -25 35 -22 13 -35 46
-27 68 4 11 22 33 39 49 24 23 31 26 31 13 0 -9 10 -28 22 -42 31 -36 95 -35
122 0 11 15 25 23 34 20 10 -4 12 0 8 11 -3 8 -6 28 -6 43 0 21 -9 33 -40 51
-22 14 -40 28 -40 31 0 3 11 11 25 17 14 7 28 19 31 27 9 23 24 18 24 -9 0
-17 9 -28 29 -37 16 -7 27 -17 25 -21 -3 -4 9 -8 26 -8 18 0 29 4 25 10 -3 6
2 10 12 10 24 0 43 19 43 41 0 10 5 19 11 21 7 2 7 12 -1 33 -16 41 -39 65
-63 65 -17 0 -15 5 15 36 l36 35 25 -25 c37 -37 75 -34 115 7 43 44 44 88 2
118 -16 12 -27 25 -25 29 2 3 -10 4 -26 2 -29 -4 -30 -3 -23 24 5 16 8 37 8
47 0 9 6 17 13 17 7 0 13 -4 13 -10 0 -5 18 -10 40 -10 72 0 123 74 85 124 -8
10 -12 23 -9 27 3 5 -4 9 -15 9 -11 0 -23 5 -26 10 -3 6 -17 10 -31 10 -13 0
-24 -4 -24 -10 0 -5 -7 -10 -15 -10 -11 0 -15 12 -15 44 0 24 -3 51 -6 59 -4
12 3 14 39 10 65 -8 96 17 97 75 0 57 -43 102 -97 102 -20 0 -33 -3 -30 -7 8
-7 -11 -33 -24 -33 -4 0 -6 11 -3 25 2 14 1 25 -4 25 -5 0 -14 11 -20 25 -11
24 -10 25 19 25 48 0 69 33 67 103 -1 47 -4 57 -19 57 -10 0 -21 5 -24 10 -18
29 -105 -1 -118 -40 -3 -10 -8 -6 -16 14 -12 30 -160 182 -201 205 -65 38
-157 81 -172 81 -9 0 -20 5 -23 10 -3 6 -22 10 -41 10 -24 0 -34 5 -34 15 0
14 -17 16 -110 14 -86 -1 -110 -4 -110 -15 0 -8 -6 -14 -12 -14 -7 0 -28 -14
-45 -30 -31 -28 -33 -34 -33 -95 0 -48 5 -70 18 -84 9 -10 32 -38 50 -62 18
-24 45 -60 60 -80 15 -20 34 -47 42 -59 8 -12 25 -34 38 -48 33 -39 36 -43 77
-105 21 -31 41 -57 45 -57 3 0 16 -17 28 -39 12 -21 29 -44 37 -51 20 -17 75
-98 75 -111 0 -6 5 -7 10 -4 6 3 10 -3 10 -14 0 -10 5 -21 12 -23 7 -3 11 -28
9 -74 -2 -68 -3 -70 -46 -111 -25 -24 -47 -43 -50 -43 -3 0 -25 -19 -48 -42
-117 -117 -284 -268 -297 -268 -6 0 -10 -3 -10 -7 0 -5 -9 -19 -19 -32 l-19
-25 5 68 c3 37 1 91 -6 119 -6 29 -16 126 -22 217 -6 91 -15 203 -20 250 -5
47 -12 115 -15 153 -3 37 -10 67 -14 67 -5 0 -10 17 -12 38 l-3 37 -155 3
c-85 1 -165 0 -177 -3 -24 -6 -32 -38 -13 -50 6 -3 10 -24 10 -45 0 -21 5 -42
10 -45 6 -3 10 -43 10 -88 0 -52 4 -77 9 -68 6 9 11 -9 15 -55 4 -38 11 -94
16 -124 33 -187 27 -1065 -9 -1405 -6 -55 -11 -113 -11 -130 -1 -26 -3 -27
-10 -10 -6 13 -9 -18 -9 -87 -1 -60 -5 -110 -11 -113 -5 -3 -10 -31 -10 -62 0
-31 -4 -72 -10 -92 -5 -20 -12 -58 -15 -85 -5 -35 -9 -45 -16 -35 -6 9 -8 -9
-7 -52 1 -36 -3 -72 -8 -80 -8 -13 -15 -53 -30 -179 -3 -25 -10 -49 -15 -55
-5 -5 -9 -20 -9 -34 0 -13 -4 -38 -9 -55 -6 -17 -17 -66 -27 -108 -9 -43 -20
-75 -25 -72 -5 3 -9 -15 -9 -40 0 -25 -4 -48 -10 -51 -5 -3 -10 -21 -11 -38 0
-32 0 -32 -10 -7 -6 14 -9 39 -7 57 2 18 -1 31 -7 30 -5 -1 -11 14 -13 33 -2
19 -8 39 -13 45 -5 5 -9 21 -9 35 0 15 -7 41 -16 59 -11 22 -14 44 -9 68 4 23
3 33 -4 29 -6 -4 -13 3 -15 16 -9 44 -17 93 -23 138 -3 25 -9 49 -14 55 -5 5
-9 38 -9 73 0 37 -4 61 -9 57 -6 -3 -13 11 -16 32 -3 21 -8 52 -11 68 -12 63
-26 173 -31 245 -2 41 -8 80 -13 85 -5 6 -11 49 -14 98 -3 48 -7 91 -10 95 -3
5 -6 49 -7 98 -1 49 -8 139 -15 199 -16 134 -18 920 -3 1034 5 42 14 126 20
186 5 61 12 132 14 159 3 27 9 54 14 60 5 6 12 38 15 71 4 33 10 79 13 103 l5
42 -178 -2 -179 -3 -3 -55 c-1 -30 -7 -64 -12 -75 -5 -11 -12 -54 -14 -95 -12
-170 -22 -276 -28 -285 -3 -5 -8 -103 -10 -218 -2 -178 -5 -207 -18 -205 -8 2
-19 13 -25 26 -5 12 -14 22 -18 22 -5 0 -42 32 -83 72 -41 40 -85 79 -99 87
-14 9 -23 21 -21 28 3 7 0 12 -7 10 -7 -1 -11 4 -9 11 1 8 -2 10 -8 7 -6 -4
-24 6 -39 22 -16 15 -63 61 -105 102 l-76 74 0 54 c0 29 5 53 10 53 6 0 10 5
10 11 0 10 53 92 75 115 5 6 17 22 25 34 13 20 57 79 78 105 4 6 21 28 37 50
17 22 36 46 43 53 6 7 12 16 12 20 0 4 11 20 25 36 14 16 25 32 25 35 0 3 14
21 30 38 17 18 30 35 30 38 -1 5 30 47 80 109 14 17 31 42 37 56 15 32 24 112
12 104 -5 -3 -13 5 -18 18 -11 28 -45 58 -66 58 -8 0 -15 7 -15 15 0 12 -19
15 -110 15 -91 0 -110 -3 -110 -15z m1628 -1773 c95 -101 192 -208 222 -246
24 -31 28 -42 19 -58 -19 -36 -163 -165 -180 -160 -5 1 -9 -4 -9 -10 0 -20
-79 -90 -92 -82 -7 4 -8 3 -4 -5 7 -11 -15 -41 -32 -41 -5 0 -15 -11 -22 -25
-7 -14 -17 -25 -22 -25 -11 0 -10 18 2 25 6 3 10 42 10 85 0 44 7 130 16 191
10 77 14 167 12 285 -3 170 -3 172 15 144 10 -16 39 -51 65 -78z m-1343 -4 c0
-196 16 -533 27 -576 6 -23 8 -45 5 -49 -4 -3 -32 19 -64 49 -65 62 -136 126
-241 219 -45 40 -57 75 -36 107 15 23 74 87 172 189 23 24 42 47 42 52 0 14
36 41 44 34 4 -5 6 -3 4 2 -2 7 40 75 46 75 1 0 1 -46 1 -102z m55 -898 c-5
-36 -3 -51 7 -54 8 -4 13 -23 13 -56 0 -28 5 -61 11 -72 14 -27 32 -153 33
-231 1 -31 3 -53 4 -47 9 25 22 -6 22 -51 0 -27 5 -49 10 -49 6 0 10 -15 10
-34 0 -19 6 -36 13 -39 6 -2 10 -7 7 -10 -3 -3 -20 7 -37 23 -18 17 -37 30
-42 30 -6 0 -11 5 -11 10 0 6 -7 10 -15 10 -8 0 -15 5 -15 10 0 6 -5 10 -11
10 -16 0 -59 36 -52 44 3 3 -3 6 -15 6 -12 0 -22 5 -22 10 0 6 -7 10 -15 10
-8 0 -15 4 -15 8 0 5 -12 15 -27 23 -16 8 -30 16 -33 20 -3 3 -23 18 -45 35
-22 16 -46 34 -52 41 -16 15 -16 53 0 74 23 30 102 123 152 178 28 31 66 78
85 103 19 26 38 48 41 48 3 0 3 -22 -1 -50z m1174 23 c9 -16 36 -48 61 -73 25
-25 45 -48 45 -51 0 -4 14 -22 30 -40 104 -115 140 -161 140 -179 -1 -19 -24
-50 -39 -50 -6 0 -11 -4 -11 -10 0 -5 -6 -10 -14 -10 -8 0 -31 -16 -51 -35
-20 -19 -50 -40 -66 -47 -16 -7 -29 -16 -29 -20 0 -5 -4 -8 -9 -8 -6 0 -21
-10 -35 -23 -13 -12 -37 -29 -53 -37 -15 -8 -39 -25 -52 -37 -14 -12 -28 -20
-33 -17 -4 3 -8 -2 -8 -10 0 -9 -6 -16 -14 -16 -9 0 -12 7 -9 20 3 11 9 20 14
20 4 0 9 21 11 48 2 26 8 46 13 45 7 -1 9 12 7 33 -5 40 5 87 17 80 4 -3 9 25
10 62 1 37 6 69 11 70 6 2 10 37 10 78 0 43 4 74 10 74 6 0 10 33 10 80 0 84
9 99 34 53z"/>
<path d="M8179 3190 c-256 -29 -460 -151 -584 -350 -39 -62 -81 -181 -95 -273
-17 -106 -8 -272 20 -362 26 -83 100 -232 163 -329 l45 -69 -98 -77 c-198
-158 -299 -280 -356 -430 -27 -71 -28 -84 -29 -235 0 -140 3 -169 23 -235 42
-134 87 -206 191 -310 84 -83 110 -103 201 -148 172 -86 346 -119 580 -109
220 9 404 55 574 145 l76 39 66 -73 66 -74 369 0 c203 0 369 3 369 8 0 4 -94
116 -210 249 -115 133 -210 244 -210 246 0 3 24 43 53 89 118 188 181 417 202
741 l7 97 -286 0 -286 0 0 -59 c0 -32 -7 -96 -16 -141 -17 -90 -71 -250 -84
-250 -10 0 -420 468 -420 478 1 4 47 39 103 77 309 213 453 452 432 720 -8
109 -21 156 -67 255 -56 117 -176 237 -298 298 -145 72 -324 101 -501 82z
m176 -521 c52 -14 126 -90 143 -145 16 -55 15 -90 -4 -153 -20 -70 -76 -129
-189 -203 l-90 -59 -20 26 c-102 126 -146 275 -114 388 11 40 67 110 103 129
50 27 112 33 171 17z m-69 -1534 l246 -280 -41 -18 c-122 -53 -286 -71 -374
-41 -64 22 -140 92 -174 162 -25 52 -28 67 -28 162 1 85 5 116 23 161 25 64
78 142 92 137 5 -2 120 -129 256 -283z"/>
<path d="M4760 1729 l0 -1430 693 3 c769 5 778 5 987 74 227 75 368 191 454
374 45 96 64 170 75 296 16 182 -13 336 -84 454 -65 106 -196 211 -300 240
-25 7 -45 15 -44 19 0 3 28 20 62 36 80 39 192 149 235 232 52 98 72 196 72
343 0 93 -5 147 -20 204 -72 284 -310 473 -683 545 -165 32 -362 41 -924 41
l-523 0 0 -1431z m1155 881 c99 -14 161 -39 213 -84 68 -60 86 -110 86 -236 1
-91 -2 -111 -23 -150 -32 -62 -58 -88 -115 -117 -78 -39 -177 -52 -408 -53
l-208 0 0 325 0 325 193 0 c105 0 224 -5 262 -10z m123 -1111 c69 -14 151 -66
184 -115 55 -82 73 -228 42 -333 -28 -97 -123 -174 -242 -200 -31 -6 -157 -11
-307 -11 l-255 0 0 335 0 335 265 0 c148 0 286 -5 313 -11z"/>
<path d="M10040 1730 l0 -1431 693 4 c564 4 707 7 773 20 369 69 585 219 686
477 41 104 52 174 53 335 0 130 -3 160 -23 225 -50 160 -147 276 -292 349 -45
22 -89 41 -96 41 -29 0 -12 16 52 49 96 50 184 142 233 244 56 117 66 170 65
332 0 155 -14 224 -66 330 -112 230 -353 373 -728 431 -86 13 -220 17 -727 21
l-623 5 0 -1432z m1152 880 c210 -30 302 -130 302 -325 -1 -147 -68 -243 -201
-286 -61 -20 -94 -23 -315 -27 l-248 -4 0 326 0 326 198 0 c108 0 227 -5 264
-10z m120 -1111 c75 -16 119 -41 165 -93 53 -60 77 -136 77 -247 0 -73 -4 -93
-27 -142 -34 -68 -90 -119 -166 -149 -53 -21 -74 -23 -343 -26 l-288 -3 0 335
0 336 265 0 c157 0 285 -5 317 -11z"/>
</g>
</svg>
